<?xml version="1.0" standalone="no"?><!DOCTYPE svg PUBLIC "-//W3C//DTD SVG 1.1//EN" "http://www.w3.org/Graphics/SVG/1.1/DTD/svg11.dtd"><svg t="1709728574544" class="icon" viewBox="0 0 1024 1024" version="1.1" xmlns="http://www.w3.org/2000/svg" p-id="2308" xmlns:xlink="http://www.w3.org/1999/xlink" width="200" height="200"><path d="M180.705882 0c-30.117647 0-60.235294 18.070588-60.235294 43.369412v937.261176c0 25.298824 25.118118 43.369412 60.235294 43.369412s60.235294-18.070588 60.235294-43.369412V43.369412C235.941647 18.070588 210.823529 0 180.705882 0z m542.117647 92.099765c-73.005176 0-135.529412-19.215059-180.705882-46.08S434.416941 0 361.411765 0 225.882353 34.514824 180.705882 61.44v510.192941c45.176471-26.804706 107.700706-61.379765 180.705883-61.379765s139.023059 19.215059 180.705882 46.08c45.176471 26.864941 107.700706 46.019765 180.705882 46.019765s135.529412-34.514824 180.705883-61.44V30.72c-45.176471 26.804706-107.700706 61.379765-180.705883 61.379765z" fill="#F78861" p-id="2309"></path></svg>